<mxfile host="app.diagrams.net" agent="Mozilla/5.0 (X11; Linux x86_64) AppleWebKit/537.36 (KHTML, like Gecko) Chrome/128.0.0.0 Safari/537.36" version="24.7.14">
  <diagram name="Page-1" id="c7558073-3199-34d8-9f00-42111426c3f3">
    <mxGraphModel dx="1536" dy="816" grid="1" gridSize="10" guides="1" tooltips="1" connect="1" arrows="1" fold="1" page="1" pageScale="1" pageWidth="1169" pageHeight="827" background="none" math="0" shadow="0">
      <root>
        <mxCell id="0" />
        <mxCell id="1" parent="0" />
        <mxCell id="wsmfsViyqE6_RoJ9hA4X-139" style="edgeStyle=orthogonalEdgeStyle;rounded=0;orthogonalLoop=1;jettySize=auto;html=1;entryX=0;entryY=0.5;entryDx=0;entryDy=0;strokeWidth=2;fillColor=#d5e8d4;strokeColor=#82b366;" edge="1" parent="1" source="3" target="wsmfsViyqE6_RoJ9hA4X-98">
          <mxGeometry relative="1" as="geometry" />
        </mxCell>
        <mxCell id="wsmfsViyqE6_RoJ9hA4X-148" value="80 &amp;amp; 443" style="edgeLabel;html=1;align=center;verticalAlign=middle;resizable=0;points=[];" vertex="1" connectable="0" parent="wsmfsViyqE6_RoJ9hA4X-139">
          <mxGeometry x="0.212" y="-1" relative="1" as="geometry">
            <mxPoint as="offset" />
          </mxGeometry>
        </mxCell>
        <mxCell id="wsmfsViyqE6_RoJ9hA4X-140" style="edgeStyle=orthogonalEdgeStyle;rounded=0;orthogonalLoop=1;jettySize=auto;html=1;entryX=0.5;entryY=1;entryDx=0;entryDy=0;strokeWidth=2;fillColor=#e1d5e7;strokeColor=#9673a6;" edge="1" parent="1" source="3" target="wsmfsViyqE6_RoJ9hA4X-137">
          <mxGeometry relative="1" as="geometry" />
        </mxCell>
        <mxCell id="wsmfsViyqE6_RoJ9hA4X-151" value="25565" style="edgeLabel;html=1;align=center;verticalAlign=middle;resizable=0;points=[];" vertex="1" connectable="0" parent="wsmfsViyqE6_RoJ9hA4X-140">
          <mxGeometry x="-0.0311" y="3" relative="1" as="geometry">
            <mxPoint as="offset" />
          </mxGeometry>
        </mxCell>
        <mxCell id="wsmfsViyqE6_RoJ9hA4X-141" style="edgeStyle=orthogonalEdgeStyle;rounded=0;orthogonalLoop=1;jettySize=auto;html=1;fillColor=#e1d5e7;strokeColor=#9673a6;strokeWidth=2;" edge="1" parent="1" source="3" target="wsmfsViyqE6_RoJ9hA4X-136">
          <mxGeometry relative="1" as="geometry" />
        </mxCell>
        <mxCell id="wsmfsViyqE6_RoJ9hA4X-152" value="7777" style="edgeLabel;html=1;align=center;verticalAlign=middle;resizable=0;points=[];" vertex="1" connectable="0" parent="wsmfsViyqE6_RoJ9hA4X-141">
          <mxGeometry x="-0.0455" y="-1" relative="1" as="geometry">
            <mxPoint as="offset" />
          </mxGeometry>
        </mxCell>
        <mxCell id="wsmfsViyqE6_RoJ9hA4X-143" style="edgeStyle=orthogonalEdgeStyle;rounded=1;orthogonalLoop=1;jettySize=auto;html=1;exitX=0.75;exitY=1;exitDx=0;exitDy=0;entryX=0.5;entryY=0;entryDx=0;entryDy=0;curved=0;strokeWidth=2;fillColor=#e1d5e7;strokeColor=#9673a6;" edge="1" parent="1" source="3" target="wsmfsViyqE6_RoJ9hA4X-138">
          <mxGeometry relative="1" as="geometry" />
        </mxCell>
        <mxCell id="wsmfsViyqE6_RoJ9hA4X-172" value="26900" style="edgeLabel;html=1;align=center;verticalAlign=middle;resizable=0;points=[];" vertex="1" connectable="0" parent="wsmfsViyqE6_RoJ9hA4X-143">
          <mxGeometry x="0.0792" relative="1" as="geometry">
            <mxPoint as="offset" />
          </mxGeometry>
        </mxCell>
        <mxCell id="wsmfsViyqE6_RoJ9hA4X-145" style="edgeStyle=orthogonalEdgeStyle;rounded=1;orthogonalLoop=1;jettySize=auto;html=1;exitX=1;exitY=0.75;exitDx=0;exitDy=0;entryX=0.25;entryY=0;entryDx=0;entryDy=0;curved=0;fillColor=#dae8fc;strokeColor=#FF3399;strokeWidth=2;" edge="1" parent="1" source="3" target="wsmfsViyqE6_RoJ9hA4X-125">
          <mxGeometry relative="1" as="geometry">
            <mxPoint x="230" y="470" as="targetPoint" />
            <Array as="points">
              <mxPoint x="220" y="399" />
              <mxPoint x="220" y="480" />
              <mxPoint x="298" y="480" />
            </Array>
          </mxGeometry>
        </mxCell>
        <mxCell id="wsmfsViyqE6_RoJ9hA4X-150" value="2222" style="edgeLabel;html=1;align=center;verticalAlign=middle;resizable=0;points=[];" vertex="1" connectable="0" parent="wsmfsViyqE6_RoJ9hA4X-145">
          <mxGeometry x="-0.0442" y="-1" relative="1" as="geometry">
            <mxPoint as="offset" />
          </mxGeometry>
        </mxCell>
        <mxCell id="wsmfsViyqE6_RoJ9hA4X-147" style="edgeStyle=orthogonalEdgeStyle;rounded=1;orthogonalLoop=1;jettySize=auto;html=1;exitX=1;exitY=0.25;exitDx=0;exitDy=0;entryX=0.25;entryY=1;entryDx=0;entryDy=0;curved=0;fillColor=#e1d5e7;strokeColor=#ff3399;strokeWidth=2;" edge="1" parent="1" source="3" target="wsmfsViyqE6_RoJ9hA4X-115">
          <mxGeometry relative="1" as="geometry" />
        </mxCell>
        <mxCell id="wsmfsViyqE6_RoJ9hA4X-149" value="22" style="edgeLabel;html=1;align=center;verticalAlign=middle;resizable=0;points=[];" vertex="1" connectable="0" parent="wsmfsViyqE6_RoJ9hA4X-147">
          <mxGeometry x="0.3731" y="-3" relative="1" as="geometry">
            <mxPoint as="offset" />
          </mxGeometry>
        </mxCell>
        <mxCell id="3" value="bensuperpc.org" style="whiteSpace=wrap;align=center;verticalAlign=middle;fontStyle=1;strokeWidth=3;fillColor=#dae8fc;strokeColor=#6c8ebf;fontSize=11;" parent="1" vertex="1">
          <mxGeometry x="19" y="354" width="90" height="60" as="geometry" />
        </mxCell>
        <mxCell id="wsmfsViyqE6_RoJ9hA4X-153" style="edgeStyle=orthogonalEdgeStyle;rounded=1;orthogonalLoop=1;jettySize=auto;html=1;exitX=0;exitY=0.25;exitDx=0;exitDy=0;entryX=0.75;entryY=1;entryDx=0;entryDy=0;fillColor=#d5e8d4;strokeColor=#82b366;curved=0;strokeWidth=2;" edge="1" parent="1" source="wsmfsViyqE6_RoJ9hA4X-98" target="wsmfsViyqE6_RoJ9hA4X-115">
          <mxGeometry relative="1" as="geometry" />
        </mxCell>
        <mxCell id="wsmfsViyqE6_RoJ9hA4X-154" style="edgeStyle=orthogonalEdgeStyle;rounded=1;orthogonalLoop=1;jettySize=auto;html=1;exitX=0.035;exitY=1;exitDx=0;exitDy=0;entryX=0.75;entryY=0;entryDx=0;entryDy=0;curved=0;strokeWidth=2;fillColor=#d5e8d4;strokeColor=#82b366;exitPerimeter=0;" edge="1" parent="1" source="wsmfsViyqE6_RoJ9hA4X-98" target="wsmfsViyqE6_RoJ9hA4X-125">
          <mxGeometry relative="1" as="geometry">
            <Array as="points">
              <mxPoint x="300" y="429" />
              <mxPoint x="300" y="465" />
              <mxPoint x="352" y="465" />
            </Array>
          </mxGeometry>
        </mxCell>
        <mxCell id="wsmfsViyqE6_RoJ9hA4X-157" style="edgeStyle=orthogonalEdgeStyle;rounded=0;orthogonalLoop=1;jettySize=auto;html=1;exitX=0.062;exitY=-0.005;exitDx=0;exitDy=0;entryX=0.5;entryY=1;entryDx=0;entryDy=0;exitPerimeter=0;fillColor=#d5e8d4;strokeColor=#82b366;strokeWidth=2;" edge="1" parent="1" source="wsmfsViyqE6_RoJ9hA4X-98" target="wsmfsViyqE6_RoJ9hA4X-102">
          <mxGeometry relative="1" as="geometry" />
        </mxCell>
        <mxCell id="wsmfsViyqE6_RoJ9hA4X-158" style="edgeStyle=orthogonalEdgeStyle;rounded=0;orthogonalLoop=1;jettySize=auto;html=1;exitX=0.208;exitY=0.011;exitDx=0;exitDy=0;entryX=0.5;entryY=1;entryDx=0;entryDy=0;exitPerimeter=0;strokeWidth=2;fillColor=#d5e8d4;strokeColor=#82b366;" edge="1" parent="1" source="wsmfsViyqE6_RoJ9hA4X-98" target="wsmfsViyqE6_RoJ9hA4X-129">
          <mxGeometry relative="1" as="geometry" />
        </mxCell>
        <mxCell id="wsmfsViyqE6_RoJ9hA4X-159" style="edgeStyle=orthogonalEdgeStyle;rounded=0;orthogonalLoop=1;jettySize=auto;html=1;exitX=0.208;exitY=0.961;exitDx=0;exitDy=0;exitPerimeter=0;strokeWidth=2;fillColor=#d5e8d4;strokeColor=#82b366;" edge="1" parent="1" source="wsmfsViyqE6_RoJ9hA4X-98" target="wsmfsViyqE6_RoJ9hA4X-114">
          <mxGeometry relative="1" as="geometry" />
        </mxCell>
        <mxCell id="wsmfsViyqE6_RoJ9hA4X-160" style="edgeStyle=orthogonalEdgeStyle;rounded=0;orthogonalLoop=1;jettySize=auto;html=1;exitX=0.354;exitY=0.014;exitDx=0;exitDy=0;entryX=0.5;entryY=1;entryDx=0;entryDy=0;exitPerimeter=0;strokeWidth=2;fillColor=#d5e8d4;strokeColor=#82b366;" edge="1" parent="1" source="wsmfsViyqE6_RoJ9hA4X-98" target="wsmfsViyqE6_RoJ9hA4X-131">
          <mxGeometry relative="1" as="geometry" />
        </mxCell>
        <mxCell id="wsmfsViyqE6_RoJ9hA4X-161" style="edgeStyle=orthogonalEdgeStyle;rounded=0;orthogonalLoop=1;jettySize=auto;html=1;exitX=0.354;exitY=1.009;exitDx=0;exitDy=0;entryX=0.5;entryY=0;entryDx=0;entryDy=0;exitPerimeter=0;fillColor=#d5e8d4;strokeColor=#82b366;strokeWidth=2;" edge="1" parent="1" source="wsmfsViyqE6_RoJ9hA4X-98" target="wsmfsViyqE6_RoJ9hA4X-107">
          <mxGeometry relative="1" as="geometry" />
        </mxCell>
        <mxCell id="wsmfsViyqE6_RoJ9hA4X-162" style="edgeStyle=orthogonalEdgeStyle;rounded=0;orthogonalLoop=1;jettySize=auto;html=1;exitX=0.5;exitY=0;exitDx=0;exitDy=0;entryX=0.5;entryY=1;entryDx=0;entryDy=0;fillColor=#d5e8d4;strokeColor=#82b366;strokeWidth=2;" edge="1" parent="1" source="wsmfsViyqE6_RoJ9hA4X-98" target="wsmfsViyqE6_RoJ9hA4X-130">
          <mxGeometry relative="1" as="geometry" />
        </mxCell>
        <mxCell id="wsmfsViyqE6_RoJ9hA4X-163" style="edgeStyle=orthogonalEdgeStyle;rounded=0;orthogonalLoop=1;jettySize=auto;html=1;exitX=0.5;exitY=1;exitDx=0;exitDy=0;entryX=0.5;entryY=0;entryDx=0;entryDy=0;strokeWidth=2;fillColor=#d5e8d4;strokeColor=#82b366;" edge="1" parent="1" source="wsmfsViyqE6_RoJ9hA4X-98" target="wsmfsViyqE6_RoJ9hA4X-108">
          <mxGeometry relative="1" as="geometry" />
        </mxCell>
        <mxCell id="wsmfsViyqE6_RoJ9hA4X-164" style="edgeStyle=orthogonalEdgeStyle;rounded=0;orthogonalLoop=1;jettySize=auto;html=1;exitX=0.646;exitY=0.021;exitDx=0;exitDy=0;entryX=0.5;entryY=1;entryDx=0;entryDy=0;exitPerimeter=0;strokeWidth=2;fillColor=#d5e8d4;strokeColor=#82b366;" edge="1" parent="1" source="wsmfsViyqE6_RoJ9hA4X-98" target="wsmfsViyqE6_RoJ9hA4X-132">
          <mxGeometry relative="1" as="geometry" />
        </mxCell>
        <mxCell id="wsmfsViyqE6_RoJ9hA4X-165" style="edgeStyle=orthogonalEdgeStyle;rounded=0;orthogonalLoop=1;jettySize=auto;html=1;exitX=0.646;exitY=0.985;exitDx=0;exitDy=0;entryX=0.5;entryY=0;entryDx=0;entryDy=0;strokeWidth=2;fillColor=#d5e8d4;strokeColor=#82b366;exitPerimeter=0;" edge="1" parent="1" source="wsmfsViyqE6_RoJ9hA4X-98" target="wsmfsViyqE6_RoJ9hA4X-126">
          <mxGeometry relative="1" as="geometry" />
        </mxCell>
        <mxCell id="wsmfsViyqE6_RoJ9hA4X-168" style="edgeStyle=orthogonalEdgeStyle;rounded=0;orthogonalLoop=1;jettySize=auto;html=1;exitX=0.792;exitY=-0.002;exitDx=0;exitDy=0;entryX=0.5;entryY=1;entryDx=0;entryDy=0;exitPerimeter=0;strokeWidth=2;fillColor=#d5e8d4;strokeColor=#82b366;" edge="1" parent="1" source="wsmfsViyqE6_RoJ9hA4X-98" target="wsmfsViyqE6_RoJ9hA4X-133">
          <mxGeometry relative="1" as="geometry" />
        </mxCell>
        <mxCell id="wsmfsViyqE6_RoJ9hA4X-169" style="edgeStyle=orthogonalEdgeStyle;rounded=0;orthogonalLoop=1;jettySize=auto;html=1;exitX=0.792;exitY=1.015;exitDx=0;exitDy=0;entryX=0.5;entryY=0;entryDx=0;entryDy=0;exitPerimeter=0;strokeWidth=2;fillColor=#d5e8d4;strokeColor=#82b366;" edge="1" parent="1" source="wsmfsViyqE6_RoJ9hA4X-98" target="wsmfsViyqE6_RoJ9hA4X-127">
          <mxGeometry relative="1" as="geometry" />
        </mxCell>
        <mxCell id="wsmfsViyqE6_RoJ9hA4X-170" style="edgeStyle=orthogonalEdgeStyle;rounded=0;orthogonalLoop=1;jettySize=auto;html=1;exitX=0.938;exitY=0.981;exitDx=0;exitDy=0;entryX=0.5;entryY=0;entryDx=0;entryDy=0;exitPerimeter=0;strokeWidth=2;fillColor=#d5e8d4;strokeColor=#82b366;" edge="1" parent="1" source="wsmfsViyqE6_RoJ9hA4X-98" target="wsmfsViyqE6_RoJ9hA4X-128">
          <mxGeometry relative="1" as="geometry" />
        </mxCell>
        <mxCell id="wsmfsViyqE6_RoJ9hA4X-171" style="edgeStyle=orthogonalEdgeStyle;rounded=0;orthogonalLoop=1;jettySize=auto;html=1;exitX=0.938;exitY=0.011;exitDx=0;exitDy=0;entryX=0.5;entryY=1;entryDx=0;entryDy=0;exitPerimeter=0;strokeWidth=2;fillColor=#d5e8d4;strokeColor=#82b366;" edge="1" parent="1" source="wsmfsViyqE6_RoJ9hA4X-98" target="wsmfsViyqE6_RoJ9hA4X-134">
          <mxGeometry relative="1" as="geometry" />
        </mxCell>
        <mxCell id="wsmfsViyqE6_RoJ9hA4X-98" value="&lt;p style=&quot;margin: 0px; margin-top: 4px; text-align: center; text-decoration: underline;&quot;&gt;&lt;strong&gt;Reverse Proxy&lt;/strong&gt;&lt;/p&gt;&lt;hr&gt;&lt;p style=&quot;margin: 0px; margin-left: 8px;&quot;&gt;Caddy server&lt;/p&gt;" style="verticalAlign=middle;align=center;overflow=fill;fontSize=12;fontFamily=Helvetica;html=1;rounded=1;fontStyle=1;strokeWidth=3;fillColor=#ffe6cc;strokeColor=#d79b00;" vertex="1" parent="1">
          <mxGeometry x="270" y="339" width="890" height="90" as="geometry" />
        </mxCell>
        <mxCell id="wsmfsViyqE6_RoJ9hA4X-102" value="&lt;p style=&quot;margin: 4px 0px 0px; text-align: center; text-decoration: underline;&quot;&gt;&lt;font style=&quot;font-size: 12px;&quot;&gt;Homepage&lt;/font&gt;&lt;/p&gt;&lt;hr style=&quot;&quot;&gt;&lt;p style=&quot;margin: 0px 0px 0px 8px;&quot;&gt;&lt;font style=&quot;font-size: 8px;&quot;&gt;www.bensuperpc.org&lt;/font&gt;&lt;/p&gt;&lt;p style=&quot;margin: 0px 0px 0px 8px;&quot;&gt;&lt;br&gt;&lt;/p&gt;" style="verticalAlign=middle;align=center;overflow=fill;fontSize=12;fontFamily=Helvetica;html=1;rounded=1;fontStyle=1;strokeWidth=3;fillColor=#E6FFCC" vertex="1" parent="1">
          <mxGeometry x="270" y="180" width="110" height="90" as="geometry" />
        </mxCell>
        <mxCell id="wsmfsViyqE6_RoJ9hA4X-107" value="&lt;p style=&quot;margin: 4px 0px 0px; text-align: center; text-decoration: underline;&quot;&gt;&lt;font style=&quot;font-size: 12px;&quot;&gt;File sharing 1&lt;/font&gt;&lt;/p&gt;&lt;hr style=&quot;&quot;&gt;&lt;p style=&quot;margin: 0px 0px 0px 8px;&quot;&gt;&lt;font style=&quot;font-size: 8px;&quot;&gt;dufs.bensuperpc.org&lt;/font&gt;&lt;/p&gt;&lt;p style=&quot;margin: 0px 0px 0px 8px;&quot;&gt;&lt;br&gt;&lt;/p&gt;" style="verticalAlign=middle;align=center;overflow=fill;fontSize=12;fontFamily=Helvetica;html=1;rounded=1;fontStyle=1;strokeWidth=3;fillColor=#E6FFCC" vertex="1" parent="1">
          <mxGeometry x="530" y="500" width="110" height="90" as="geometry" />
        </mxCell>
        <mxCell id="wsmfsViyqE6_RoJ9hA4X-108" value="&lt;p style=&quot;margin: 4px 0px 0px; text-align: center; text-decoration: underline;&quot;&gt;Jellyfin&lt;/p&gt;&lt;hr style=&quot;&quot;&gt;&lt;p style=&quot;margin: 0px 0px 0px 8px;&quot;&gt;&lt;font style=&quot;font-size: 8px;&quot;&gt;jellyfin.bensuperpc.org&lt;/font&gt;&lt;/p&gt;&lt;p style=&quot;margin: 0px 0px 0px 8px;&quot;&gt;&lt;br&gt;&lt;/p&gt;" style="verticalAlign=middle;align=center;overflow=fill;fontSize=12;fontFamily=Helvetica;html=1;rounded=1;fontStyle=1;strokeWidth=3;fillColor=#E6FFCC" vertex="1" parent="1">
          <mxGeometry x="660" y="500" width="110" height="90" as="geometry" />
        </mxCell>
        <mxCell id="wsmfsViyqE6_RoJ9hA4X-114" value="&lt;p style=&quot;margin: 4px 0px 0px; text-align: center; text-decoration: underline;&quot;&gt;Wordpress&lt;/p&gt;&lt;hr style=&quot;&quot;&gt;&lt;p style=&quot;margin: 0px 0px 0px 8px;&quot;&gt;&lt;font style=&quot;font-size: 7px;&quot;&gt;wordpress.bensuperpc.org&lt;/font&gt;&lt;/p&gt;" style="verticalAlign=middle;align=center;overflow=fill;fontSize=12;fontFamily=Helvetica;html=1;rounded=1;fontStyle=1;strokeWidth=3;fillColor=#E6FFCC" vertex="1" parent="1">
          <mxGeometry x="400" y="500" width="110" height="90" as="geometry" />
        </mxCell>
        <mxCell id="wsmfsViyqE6_RoJ9hA4X-115" value="&lt;p style=&quot;margin: 4px 0px 0px; text-align: center; text-decoration: underline;&quot;&gt;Gitea&lt;/p&gt;&lt;hr style=&quot;&quot;&gt;&lt;p style=&quot;margin: 0px 0px 0px 8px;&quot;&gt;&lt;font style=&quot;font-size: 8px;&quot;&gt;gitea.bensuperpc.org&lt;/font&gt;&lt;/p&gt;&lt;p style=&quot;margin: 0px 0px 0px 8px;&quot;&gt;&lt;br&gt;&lt;/p&gt;" style="verticalAlign=middle;align=center;overflow=fill;fontSize=12;fontFamily=Helvetica;html=1;rounded=1;fontStyle=1;strokeWidth=3;fillColor=#E6FFCC" vertex="1" parent="1">
          <mxGeometry x="140" y="180" width="110" height="90" as="geometry" />
        </mxCell>
        <mxCell id="wsmfsViyqE6_RoJ9hA4X-125" value="&lt;p style=&quot;margin: 4px 0px 0px; text-align: center; text-decoration: underline;&quot;&gt;OpenSSH&lt;/p&gt;&lt;hr style=&quot;&quot;&gt;&lt;p style=&quot;margin: 0px 0px 0px 8px;&quot;&gt;&lt;font style=&quot;font-size: 8px;&quot;&gt;bensuperpc.org&lt;/font&gt;&lt;/p&gt;&lt;p style=&quot;margin: 0px 0px 0px 8px;&quot;&gt;&lt;br&gt;&lt;/p&gt;" style="verticalAlign=middle;align=center;overflow=fill;fontSize=12;fontFamily=Helvetica;html=1;rounded=1;fontStyle=1;strokeWidth=3;fillColor=#E6FFCC" vertex="1" parent="1">
          <mxGeometry x="270" y="500" width="110" height="90" as="geometry" />
        </mxCell>
        <mxCell id="wsmfsViyqE6_RoJ9hA4X-126" value="&lt;p style=&quot;margin: 4px 0px 0px; text-align: center; text-decoration: underline;&quot;&gt;&lt;font style=&quot;font-size: 12px;&quot;&gt;Torrent 1&lt;/font&gt;&lt;/p&gt;&lt;hr style=&quot;&quot;&gt;&lt;p style=&quot;margin: 0px 0px 0px 8px;&quot;&gt;&lt;font style=&quot;font-size: 7px;&quot;&gt;qbittorrent.bensuperpc.org&lt;/font&gt;&lt;/p&gt;&lt;p style=&quot;margin: 0px 0px 0px 8px; font-size: 11px;&quot;&gt;&lt;br&gt;&lt;/p&gt;" style="verticalAlign=middle;align=center;overflow=fill;fontSize=12;fontFamily=Helvetica;html=1;rounded=1;fontStyle=1;strokeWidth=3;fillColor=#E6FFCC" vertex="1" parent="1">
          <mxGeometry x="790" y="500" width="110" height="90" as="geometry" />
        </mxCell>
        <mxCell id="wsmfsViyqE6_RoJ9hA4X-127" value="&lt;p style=&quot;margin: 4px 0px 0px; text-align: center; text-decoration: underline;&quot;&gt;&lt;font style=&quot;font-size: 12px;&quot;&gt;Torrent 2&lt;/font&gt;&lt;/p&gt;&lt;hr style=&quot;&quot;&gt;&lt;p style=&quot;margin: 0px 0px 0px 8px;&quot;&gt;&lt;font style=&quot;font-size: 7px;&quot;&gt;transmission.bensuperpc.org&lt;/font&gt;&lt;/p&gt;&lt;p style=&quot;margin: 0px 0px 0px 8px; font-size: 11px;&quot;&gt;&lt;br&gt;&lt;/p&gt;" style="verticalAlign=middle;align=center;overflow=fill;fontSize=12;fontFamily=Helvetica;html=1;rounded=1;fontStyle=1;strokeWidth=3;fillColor=#E6FFCC" vertex="1" parent="1">
          <mxGeometry x="920" y="500" width="110" height="90" as="geometry" />
        </mxCell>
        <mxCell id="wsmfsViyqE6_RoJ9hA4X-128" value="&lt;p style=&quot;margin: 4px 0px 0px; text-align: center; text-decoration: underline;&quot;&gt;&lt;font style=&quot;font-size: 12px;&quot;&gt;Syncthing&lt;/font&gt;&lt;/p&gt;&lt;hr style=&quot;&quot;&gt;&lt;p style=&quot;margin: 0px 0px 0px 8px;&quot;&gt;&lt;font style=&quot;font-size: 7px;&quot;&gt;syncthing.bensuperpc.org&lt;/font&gt;&lt;/p&gt;&lt;p style=&quot;margin: 0px 0px 0px 8px; font-size: 11px;&quot;&gt;&lt;br&gt;&lt;/p&gt;" style="verticalAlign=middle;align=center;overflow=fill;fontSize=12;fontFamily=Helvetica;html=1;rounded=1;fontStyle=1;strokeWidth=3;fillColor=#E6FFCC" vertex="1" parent="1">
          <mxGeometry x="1050" y="500" width="110" height="90" as="geometry" />
        </mxCell>
        <mxCell id="wsmfsViyqE6_RoJ9hA4X-129" value="&lt;p style=&quot;margin: 4px 0px 0px; text-align: center; text-decoration: underline;&quot;&gt;It-tools&lt;/p&gt;&lt;hr style=&quot;&quot;&gt;&lt;p style=&quot;margin: 0px 0px 0px 8px;&quot;&gt;&lt;font style=&quot;font-size: 8px;&quot;&gt;it-tools.bensuperpc.org&lt;/font&gt;&lt;/p&gt;" style="verticalAlign=middle;align=center;overflow=fill;fontSize=12;fontFamily=Helvetica;html=1;rounded=1;fontStyle=1;strokeWidth=3;fillColor=#E6FFCC" vertex="1" parent="1">
          <mxGeometry x="400" y="180" width="110" height="90" as="geometry" />
        </mxCell>
        <mxCell id="wsmfsViyqE6_RoJ9hA4X-130" value="&lt;p style=&quot;margin: 4px 0px 0px; text-align: center; text-decoration: underline;&quot;&gt;File sharing 3&lt;br&gt;&lt;/p&gt;&lt;hr style=&quot;&quot;&gt;&lt;p style=&quot;margin: 0px 0px 0px 8px;&quot;&gt;&lt;font style=&quot;font-size: 7px;&quot;&gt;picoshare.bensuperpc.org&lt;/font&gt;&lt;/p&gt;" style="verticalAlign=middle;align=center;overflow=fill;fontSize=12;fontFamily=Helvetica;html=1;rounded=1;fontStyle=1;strokeWidth=3;fillColor=#E6FFCC" vertex="1" parent="1">
          <mxGeometry x="660" y="180" width="110" height="90" as="geometry" />
        </mxCell>
        <mxCell id="wsmfsViyqE6_RoJ9hA4X-131" value="&lt;p style=&quot;margin: 4px 0px 0px; text-align: center; text-decoration: underline;&quot;&gt;File sharing 2&lt;br&gt;&lt;/p&gt;&lt;hr style=&quot;&quot;&gt;&lt;p style=&quot;margin: 0px 0px 0px 8px;&quot;&gt;&lt;font style=&quot;font-size: 7px;&quot;&gt;projectsend.bensuperpc.org&lt;/font&gt;&lt;/p&gt;" style="verticalAlign=middle;align=center;overflow=fill;fontSize=12;fontFamily=Helvetica;html=1;rounded=1;fontStyle=1;strokeWidth=3;fillColor=#E6FFCC" vertex="1" parent="1">
          <mxGeometry x="530" y="180" width="110" height="90" as="geometry" />
        </mxCell>
        <mxCell id="wsmfsViyqE6_RoJ9hA4X-132" value="&lt;p style=&quot;margin: 4px 0px 0px; text-align: center; text-decoration: underline;&quot;&gt;Docker admin&lt;/p&gt;&lt;hr style=&quot;&quot;&gt;&lt;p style=&quot;margin: 0px 0px 0px 8px;&quot;&gt;&lt;font style=&quot;font-size: 7px;&quot;&gt;yacht.bensuperpc.org&lt;/font&gt;&lt;/p&gt;" style="verticalAlign=middle;align=center;overflow=fill;fontSize=12;fontFamily=Helvetica;html=1;rounded=1;fontStyle=1;strokeWidth=3;fillColor=#E6FFCC" vertex="1" parent="1">
          <mxGeometry x="790" y="180" width="110" height="90" as="geometry" />
        </mxCell>
        <mxCell id="wsmfsViyqE6_RoJ9hA4X-133" value="&lt;p style=&quot;margin: 4px 0px 0px; text-align: center; text-decoration: underline;&quot;&gt;uptimekuma&lt;/p&gt;&lt;hr style=&quot;&quot;&gt;&lt;p style=&quot;margin: 0px 0px 0px 8px;&quot;&gt;&lt;font style=&quot;font-size: 7px;&quot;&gt;uptimekuma.bensuperpc.org&lt;/font&gt;&lt;/p&gt;" style="verticalAlign=middle;align=center;overflow=fill;fontSize=12;fontFamily=Helvetica;html=1;rounded=1;fontStyle=1;strokeWidth=3;fillColor=#E6FFCC" vertex="1" parent="1">
          <mxGeometry x="920" y="180" width="110" height="90" as="geometry" />
        </mxCell>
        <mxCell id="wsmfsViyqE6_RoJ9hA4X-136" value="&lt;p style=&quot;margin: 4px 0px 0px; text-align: center; text-decoration: underline;&quot;&gt;Satisfactory&lt;/p&gt;&lt;hr style=&quot;&quot;&gt;&lt;p style=&quot;margin: 0px 0px 0px 8px;&quot;&gt;&lt;font style=&quot;font-size: 8px;&quot;&gt;bensuperpc.org&lt;/font&gt;&lt;/p&gt;" style="verticalAlign=middle;align=center;overflow=fill;fontSize=12;fontFamily=Helvetica;html=1;rounded=1;fontStyle=1;strokeWidth=3;fillColor=#e1d5e7;strokeColor=#9673a6;" vertex="1" parent="1">
          <mxGeometry x="9" y="500" width="110" height="90" as="geometry" />
        </mxCell>
        <mxCell id="wsmfsViyqE6_RoJ9hA4X-137" value="&lt;p style=&quot;margin: 4px 0px 0px; text-align: center; text-decoration: underline;&quot;&gt;Minecraft&lt;/p&gt;&lt;hr style=&quot;&quot;&gt;&lt;p style=&quot;margin: 0px 0px 0px 8px;&quot;&gt;&lt;font style=&quot;font-size: 8px;&quot;&gt;bensuperpc.org&lt;/font&gt;&lt;/p&gt;" style="verticalAlign=middle;align=center;overflow=fill;fontSize=12;fontFamily=Helvetica;html=1;rounded=1;fontStyle=1;strokeWidth=3;fillColor=#e1d5e7;strokeColor=#9673a6;" vertex="1" parent="1">
          <mxGeometry x="9" y="180" width="110" height="90" as="geometry" />
        </mxCell>
        <mxCell id="wsmfsViyqE6_RoJ9hA4X-138" value="&lt;p style=&quot;margin: 4px 0px 0px; text-align: center; text-decoration: underline;&quot;&gt;7 Days to die&lt;/p&gt;&lt;hr style=&quot;&quot;&gt;&lt;p style=&quot;margin: 0px 0px 0px 8px;&quot;&gt;&lt;font style=&quot;font-size: 8px;&quot;&gt;bensuperpc.org&lt;/font&gt;&lt;/p&gt;" style="verticalAlign=middle;align=center;overflow=fill;fontSize=12;fontFamily=Helvetica;html=1;rounded=1;fontStyle=1;strokeWidth=3;fillColor=#e1d5e7;strokeColor=#9673a6;" vertex="1" parent="1">
          <mxGeometry x="140" y="500" width="110" height="90" as="geometry" />
        </mxCell>
      </root>
    </mxGraphModel>
  </diagram>
</mxfile>
